<svg width="19" height="18" viewBox="0 0 19 18" fill="none" xmlns="http://www.w3.org/2000/svg"><path d="M9.72002 2.74238C9.66109 2.686 9.58268 2.65454 9.50112 2.65454C9.41957 2.65454 9.34116 2.686 9.28223 2.74238L1.99495 9.70388C1.96401 9.73349 1.93938 9.76906 1.92258 9.80846C1.90577 9.84785 1.89713 9.89024 1.89718 9.93307L1.896 16.4667C1.896 16.8026 2.02945 17.1248 2.26699 17.3623C2.50454 17.5999 2.82672 17.7333 3.16266 17.7333H6.96661C7.13458 17.7333 7.29567 17.6666 7.41444 17.5478C7.53321 17.4291 7.59994 17.268 7.59994 17.1V11.7167C7.59994 11.6327 7.6333 11.5522 7.69269 11.4928C7.75208 11.4334 7.83262 11.4 7.91661 11.4H11.0833C11.1672 11.4 11.2478 11.4334 11.3072 11.4928C11.3666 11.5522 11.3999 11.6327 11.3999 11.7167V17.1C11.3999 17.268 11.4667 17.4291 11.5854 17.5478C11.7042 17.6666 11.8653 17.7333 12.0333 17.7333H15.8356C16.1716 17.7333 16.4937 17.5999 16.7313 17.3623C16.9688 17.1248 17.1023 16.8026 17.1023 16.4667V9.93307C17.1023 9.89024 17.0937 9.84785 17.0769 9.80846C17.0601 9.76906 17.0355 9.73349 17.0045 9.70388L9.72002 2.74238Z" fill="url(#paint0_linear_181_6716)"/><path d="M18.7985 8.39758L15.8377 5.56501V1.26666C15.8377 1.09869 15.7709 0.937603 15.6522 0.81883C15.5334 0.700058 15.3723 0.633332 15.2043 0.633332H13.3043C13.1364 0.633332 12.9753 0.700058 12.8565 0.81883C12.7377 0.937603 12.671 1.09869 12.671 1.26666V2.53333L10.3783 0.341207C10.1638 0.124291 9.84476 0 9.49999 0C9.15641 0 8.83816 0.124291 8.62362 0.341603L0.204264 8.39679C-0.0419432 8.63429 -0.0728182 9.02498 0.151223 9.28227C0.207483 9.34721 0.27637 9.40003 0.353691 9.4375C0.431012 9.47498 0.51515 9.49633 0.600984 9.50025C0.686818 9.50418 0.772553 9.4906 0.852972 9.46034C0.93339 9.43007 1.00681 9.38376 1.06876 9.32423L9.28228 1.47566C9.34122 1.41929 9.41963 1.38782 9.50118 1.38782C9.58273 1.38782 9.66114 1.41929 9.72007 1.47566L17.9344 9.32423C18.0554 9.44026 18.2175 9.50359 18.3851 9.50033C18.5527 9.49706 18.7122 9.42747 18.8286 9.30681C19.0716 9.05506 19.0514 8.63944 18.7985 8.39758Z" fill="url(#paint1_linear_181_6716)"/><defs><linearGradient id="paint0_linear_181_6716" x1="-6.21743" y1="13.039" x2="17.1023" y2="13.039" gradientUnits="userSpaceOnUse"><stop stop-color="#FFF79F"/><stop offset="1" stop-color="#9B5A25"/></linearGradient><linearGradient id="paint1_linear_181_6716" x1="-10.1376" y1="6.54309" x2="19" y2="6.54309" gradientUnits="userSpaceOnUse"><stop stop-color="#FFF79F"/><stop offset="1" stop-color="#9B5A25"/></linearGradient></defs></svg>