<svg width="19" height="14" viewBox="0 0 19 14" fill="none" xmlns="http://www.w3.org/2000/svg"><path d="M18.3214 10H17.6429V2C17.6429 1.46957 17.4284 0.960859 17.0466 0.585787C16.6648 0.210714 16.147 0 15.6071 0H3.39286C2.85295 0 2.33516 0.210714 1.95339 0.585787C1.57162 0.960859 1.35714 1.46957 1.35714 2V10H0.678571C0.498603 10 0.326006 10.0702 0.198749 10.1953C0.0714921 10.3203 0 10.4899 0 10.6667V12C0 12.5304 0.214476 13.0391 0.596247 13.4142C0.978017 13.7893 1.49581 14 2.03571 14H16.9643C17.5042 14 18.022 13.7893 18.4038 13.4142C18.7855 13.0391 19 12.5304 19 12V10.6667C19 10.4899 18.9285 10.3203 18.8013 10.1953C18.674 10.0702 18.5014 10 18.3214 10ZM8.14286 2H10.8571C11.0371 2 11.2097 2.07024 11.337 2.19526C11.4642 2.32029 11.5357 2.48986 11.5357 2.66667C11.5357 2.84348 11.4642 3.01305 11.337 3.13807C11.2097 3.2631 11.0371 3.33333 10.8571 3.33333H8.14286C7.96289 3.33333 7.79029 3.2631 7.66303 3.13807C7.53578 3.01305 7.46429 2.84348 7.46429 2.66667C7.46429 2.48986 7.53578 2.32029 7.66303 2.19526C7.79029 2.07024 7.96289 2 8.14286 2ZM17.6429 12C17.6429 12.1768 17.5714 12.3464 17.4441 12.4714C17.3169 12.5964 17.1443 12.6667 16.9643 12.6667H2.03571C1.85575 12.6667 1.68315 12.5964 1.55589 12.4714C1.42864 12.3464 1.35714 12.1768 1.35714 12V11.3333H17.6429V12Z" fill="url(#paint0_linear_181_6744)"/><defs><linearGradient id="paint0_linear_181_6744" x1="-10.1376" y1="9.64151" x2="19" y2="9.64151" gradientUnits="userSpaceOnUse"><stop stop-color="#FFF79F"/><stop offset="1" stop-color="#9B5A25"/></linearGradient></defs></svg>