<svg width="25" height="25" viewBox="0 0 25 25" fill="none" xmlns="http://www.w3.org/2000/svg">
<path d="M12.0229 19.3333C12.4458 19.3333 12.8035 19.1871 13.0959 18.8947C13.3883 18.6023 13.5341 18.245 13.5333 17.8229C13.5325 17.4008 13.3867 17.0431 13.0959 16.7499C12.8051 16.4567 12.4474 16.3109 12.0229 16.3125C11.5984 16.3141 11.2411 16.4603 10.9511 16.7511C10.6611 17.0419 10.5149 17.3992 10.5125 17.8229C10.5101 18.2466 10.6563 18.6043 10.9511 18.8959C11.246 19.1875 11.6032 19.3333 12.0229 19.3333ZM12.0833 24.1667C10.4118 24.1667 8.84097 23.8493 7.37084 23.2145C5.9007 22.5797 4.62188 21.719 3.53438 20.6323C2.44688 19.5456 1.58614 18.2668 0.952168 16.7958C0.318196 15.3249 0.000807085 13.7541 1.52954e-06 12.0833C-0.000804026 10.4126 0.316585 8.84178 0.952168 7.37083C1.58775 5.89989 2.44849 4.62107 3.53438 3.53438C4.62027 2.44768 5.89909 1.58694 7.37084 0.952167C8.84259 0.317389 10.4134 0 12.0833 0C13.7533 0 15.3241 0.317389 16.7958 0.952167C18.2676 1.58694 19.5464 2.44768 20.6323 3.53438C21.7182 4.62107 22.5793 5.89989 23.2157 7.37083C23.8521 8.84178 24.1691 10.4126 24.1667 12.0833C24.1643 13.7541 23.8469 15.3249 23.2145 16.7958C22.5821 18.2668 21.7214 19.5456 20.6323 20.6323C19.5432 21.719 18.2644 22.5801 16.7958 23.2157C15.3273 23.8513 13.7565 24.1683 12.0833 24.1667ZM12.2042 6.8875C12.7076 6.8875 13.1459 7.04861 13.5188 7.37083C13.8918 7.69306 14.0779 8.09583 14.0771 8.57917C14.0771 9.02222 13.9413 9.41493 13.6699 9.75729C13.3984 10.0997 13.0911 10.4219 12.7479 10.724C12.2847 11.1267 11.8771 11.5698 11.5251 12.0531C11.1731 12.5365 10.9966 13.0802 10.9958 13.6844C10.9958 13.9663 11.1018 14.2032 11.3136 14.3949C11.5255 14.5866 11.772 14.6821 12.0531 14.6812C12.3552 14.6812 12.6122 14.5806 12.824 14.3792C13.0359 14.1778 13.1716 13.926 13.2313 13.624C13.3118 13.201 13.4931 12.8236 13.775 12.4918C14.0569 12.1599 14.359 11.8425 14.6813 11.5396C15.1444 11.0965 15.5424 10.6132 15.8751 10.0896C16.2078 9.56597 16.3737 8.98194 16.3729 8.3375C16.3729 7.31042 15.9552 6.46982 15.1199 5.81571C14.2845 5.1616 13.3126 4.83414 12.2042 4.83333C11.4389 4.83333 10.7091 4.99444 10.0147 5.31667C9.32028 5.63889 8.79143 6.13229 8.42813 6.79688C8.28716 7.03854 8.24204 7.29551 8.29279 7.56779C8.34354 7.84007 8.47928 8.04629 8.7 8.18646C8.98195 8.34757 9.27396 8.39792 9.57604 8.3375C9.87813 8.27708 10.1299 8.1059 10.3313 7.82396C10.5528 7.52188 10.8299 7.29028 11.1626 7.12917C11.4953 6.96806 11.8425 6.8875 12.2042 6.8875Z" fill="url(#paint0_linear_1459_1669)"/>
<defs>
<linearGradient id="paint0_linear_1459_1669" x1="-12.8943" y1="16.6431" x2="24.1667" y2="16.6431" gradientUnits="userSpaceOnUse">
<stop stop-color="#FFF79F"/>
<stop offset="1" stop-color="#9B5A25"/>
</linearGradient>
</defs>
</svg>
