<svg width="52" height="59" viewBox="0 0 52 59" fill="none" xmlns="http://www.w3.org/2000/svg">
<mask id="mask0_181_6287" style="mask-type:luminance" maskUnits="userSpaceOnUse" x="0" y="0" width="26" height="59">
<path d="M11.6579 16.4742V33.0269C11.6579 35.6657 14.2967 39.0658 18.9009 42.3735C21.3321 44.1174 23.8141 45.4875 25.5302 46.3548V58.9354L25.3457 59L23.3712 58.2065C23.3204 58.1834 17.8352 55.9091 12.3084 51.9785C4.14739 46.1749 0 39.7993 0 33.0269V7.87036L25.5302 0V12.1977L11.6579 16.4696V16.4742Z" fill="white"/>
</mask>
<g mask="url(#mask0_181_6287)">
<path d="M0 54.9403L1.22715 59H0V54.9403Z" fill="#FDF5B1"/>
<path d="M0 54.3774L1.39784 59H1.22715L0 54.9403V54.3774Z" fill="#FDF5B1"/>
<path d="M0 53.8192L1.56854 59H1.39784L0 54.3774V53.8192Z" fill="#FCF3AF"/>
<path d="M0 53.2565L1.73462 59.0001H1.56854L0 53.8193V53.2565Z" fill="#FBF1AE"/>
<path d="M0 52.6982L1.90531 59.0001H1.73462L0 53.2565V52.6982Z" fill="#F9EFAC"/>
<path d="M0 52.1354L2.076 59H1.90531L0 52.6982V52.1354Z" fill="#F8EDAB"/>
<path d="M0 51.5725L2.2467 59H2.076L0 52.1353V51.5725Z" fill="#F7EBA9"/>
<path d="M0 51.0143L2.41278 59H2.2467L0 51.5725V51.0143Z" fill="#F6EAA8"/>
<path d="M0 50.4515L2.58347 59.0001H2.41278L0 51.0144V50.4515Z" fill="#F5E8A6"/>
<path d="M0 49.8933L2.75416 59H2.58347L0 50.4515V49.8933Z" fill="#F4E7A5"/>
<path d="M0 49.3304L2.92486 59H2.75416L0 49.8933V49.3304Z" fill="#F3E6A3"/>
<path d="M0 48.7677L3.09555 59.0001H2.92486L0 49.3305V48.7677Z" fill="#F2E4A2"/>
<path d="M0 48.2095L3.26163 59.0001H3.09555L0 48.7677V48.2095Z" fill="#F2E3A1"/>
<path d="M0 47.6466L3.43232 59H3.26163L0 48.2094V47.6466Z" fill="#F1E1A0"/>
<path d="M0 47.0837L3.60302 59H3.43232L0 47.6466V47.0837Z" fill="#F0E09E"/>
<path d="M0 46.5255L3.77371 59H3.60302L0 47.0837V46.5255Z" fill="#EFDF9D"/>
<path d="M0 45.9626L3.93979 58.9999H3.77371L0 46.5255V45.9626Z" fill="#EEDE9C"/>
<path d="M0 45.4045L4.11049 59.0001H3.93979L0 45.9628V45.4045Z" fill="#EDDC9B"/>
<path d="M0 44.8417L4.28118 59H4.11049L0 45.4045V44.8417Z" fill="#EDDB99"/>
<path d="M0 44.2789L4.45187 59.0001H4.28118L0 44.8418V44.2789Z" fill="#ECDA98"/>
<path d="M0 43.7207L4.62257 59.0001H4.45187L0 44.2789V43.7207Z" fill="#EBD997"/>
<path d="M0 43.1577L4.78865 58.9999H4.62257L0 43.7205V43.1577Z" fill="#EAD796"/>
<path d="M0 42.595L4.95934 59H4.78865L0 43.1578V42.595Z" fill="#E9D695"/>
<path d="M0 42.0367L5.13003 59H4.95934L0 42.595V42.0367Z" fill="#E9D594"/>
<path d="M0 41.4739L5.30073 59H5.13003L0 42.0367V41.4739Z" fill="#E8D492"/>
<path d="M0 40.9158L5.46681 59.0001H5.30073L0 41.474V40.9158Z" fill="#E7D291"/>
<path d="M0 40.3528L5.6375 58.9999H5.46681L0 40.9156V40.3528Z" fill="#E6D190"/>
<path d="M0 39.7902L5.8082 59.0001H5.6375L0 40.353V39.7902Z" fill="#E6D08F"/>
<path d="M0 39.2318L5.97889 59H5.8082L0 39.79V39.2318Z" fill="#E5CF8E"/>
<path d="M0 38.6691L6.14958 59.0001H5.97889L0 39.2319V38.6691Z" fill="#E4CE8D"/>
<path d="M0 38.1062L6.31566 59H6.14958L0 38.669V38.1062Z" fill="#E3CD8C"/>
<path d="M0 37.548L6.48636 59H6.31566L0 38.1062V37.548Z" fill="#E3CB8B"/>
<path d="M0 36.9851L6.65705 59H6.48636L0 37.5479V36.9851Z" fill="#E2CA8A"/>
<path d="M0 36.427L6.82774 59.0001H6.65705L0 36.9852V36.427Z" fill="#E1C988"/>
<path d="M0 35.8641L6.99382 59H6.82774L0 36.427V35.8641Z" fill="#E1C887"/>
<path d="M0 35.3013L7.16452 59H6.99382L0 35.8641V35.3013Z" fill="#E0C786"/>
<path d="M0 34.743L7.33521 59H7.16452L0 35.3013V34.743Z" fill="#DFC685"/>
<path d="M0 34.1802L7.5059 58.9999H7.33521L0 34.743V34.1802Z" fill="#DFC584"/>
<path d="M0 33.6174L7.67198 59H7.5059L0 34.1803V33.6174Z" fill="#DEC483"/>
<path d="M0 33.0592L7.84268 59H7.67198L0 33.6174V33.0592Z" fill="#DDC382"/>
<path d="M0 32.4963L8.01337 59H7.84268L0 33.0592V32.4963Z" fill="#DDC181"/>
<path d="M0 31.9381L8.18406 59H8.01337L0 32.4963V31.9381Z" fill="#DCC080"/>
<path d="M0 31.3754L8.35476 59H8.18406L0 31.9382V31.3754Z" fill="#DBBF7F"/>
<path d="M0 30.8125L8.52084 59H8.35476L0 31.3753V30.8125Z" fill="#DBBE7E"/>
<path d="M0 30.2543L8.69153 59H8.52084L0 30.8125V30.2543Z" fill="#DABD7D"/>
<path d="M0 29.6915L8.86223 59.0001H8.69153L0 30.2544V29.6915Z" fill="#D9BC7C"/>
<path d="M0 29.1287L9.03292 59H8.86222L0 29.6915V29.1287Z" fill="#D9BB7B"/>
<path d="M0 28.5704L9.199 59H9.03292L0 29.1286V28.5704Z" fill="#D8BA7A"/>
<path d="M0 28.0077L9.36969 59.0001H9.199L0 28.5705V28.0077Z" fill="#D7B979"/>
<path d="M0 27.4493L9.54039 59H9.36969L0 28.0076V27.4493Z" fill="#D7B878"/>
<path d="M0 26.8866L9.71108 59.0001H9.54039L0 27.4494V26.8866Z" fill="#D6B777"/>
<path d="M0 26.3237L9.88177 59H9.71108L0 26.8866V26.3237Z" fill="#D5B676"/>
<path d="M0 25.7655L10.0479 59H9.88177L0 26.3237V25.7655Z" fill="#D5B575"/>
<path d="M0 25.2028L10.2185 59.0001H10.0479L0 25.7656V25.2028Z" fill="#D4B474"/>
<path d="M0 24.6398L10.3892 58.9999H10.2185L0 25.2026V24.6398Z" fill="#D3B374"/>
<path d="M0 24.0817L10.5599 59H10.3892L0 24.6399V24.0817Z" fill="#D3B173"/>
<path d="M0 23.5188L10.726 59H10.5599L0 24.0816V23.5188Z" fill="#D2B072"/>
<path d="M0 22.9606L10.8967 59H10.726L0 23.5188V22.9606Z" fill="#D1AF71"/>
<path d="M0 22.3978L11.0674 59.0001H10.8967L0 22.9607V22.3978Z" fill="#D1AE70"/>
<path d="M0 21.835L11.2381 59H11.0674L0 22.3978V21.835Z" fill="#D0AD6F"/>
<path d="M0 21.2767L11.4088 59H11.2381L0 21.8349V21.2767Z" fill="#D0AC6E"/>
<path d="M0 20.7139L11.5749 59H11.4088L0 21.2767V20.7139Z" fill="#CFAB6D"/>
<path d="M0 20.151L11.7456 58.9999H11.5749L0 20.7138V20.151Z" fill="#CEAA6C"/>
<path d="M0 19.5929L11.9163 59H11.7456L0 20.1511V19.5929Z" fill="#CEA96B"/>
<path d="M0 19.03L12.087 59H11.9163L0 19.5929V19.03Z" fill="#CDA86A"/>
<path d="M0 18.4718L12.253 59H12.087L0 19.03V18.4718Z" fill="#CDA769"/>
<path d="M0 17.9091L12.4237 59.0001H12.253L0 18.4719V17.9091Z" fill="#CCA768"/>
<path d="M0 17.3462L12.5944 59H12.4237L0 17.909V17.3462Z" fill="#CBA668"/>
<path d="M0 16.788L12.7651 59H12.5944L0 17.3462V16.788Z" fill="#CBA567"/>
<path d="M0 16.2251L12.9312 59H12.7651L0 16.7879V16.2251Z" fill="#CAA466"/>
<path d="M0 15.6622L13.1019 59H12.9312L0 16.2251V15.6622Z" fill="#CAA365"/>
<path d="M0 15.1041L13.2726 59H13.1019L0 15.6623V15.1041Z" fill="#C9A264"/>
<path d="M0 14.5413L13.4433 59H13.2726L0 15.1041V14.5413Z" fill="#C8A163"/>
<path d="M0 13.983L13.614 59H13.4433L0 14.5412V13.983Z" fill="#C8A062"/>
<path d="M0 13.4203L13.78 59.0001H13.614L0 13.9831V13.4203Z" fill="#C79F61"/>
<path d="M0 12.8573L13.9507 58.9999H13.78L0 13.4201V12.8573Z" fill="#C79E60"/>
<path d="M0 12.2992L14.1214 59H13.9507L0 12.8574V12.2992Z" fill="#C69D5F"/>
<path d="M0 11.7363L14.2921 59H14.1214L0 12.2992V11.7363Z" fill="#C59C5F"/>
<path d="M0 11.1735L14.4582 59H14.2921L0 11.7363V11.1735Z" fill="#C59B5E"/>
<path d="M0 10.6152L14.6289 58.9999H14.4582L0 11.1734V10.6152Z" fill="#C49A5D"/>
<path d="M0 10.0525L14.7996 59H14.6289L0 10.6153V10.0525Z" fill="#C4995C"/>
<path d="M0 9.49426L14.9703 59H14.7996L0 10.0525V9.49426Z" fill="#C3985B"/>
<path d="M0 8.9314L15.141 59H14.9703L0 9.49422V8.9314Z" fill="#C2975A"/>
<path d="M0 8.36865L15.3071 59.0001H15.141L0 8.93148V8.36865Z" fill="#C29659"/>
<path d="M0 7.81042L15.4778 59H15.3071L0 8.36864V7.81042Z" fill="#C19558"/>
<path d="M0 7.24756L15.6484 59H15.4778L0 7.81039V7.24756Z" fill="#C19558"/>
<path d="M0 6.754L0.0184534 6.74939L15.8191 59.0001H15.6484L0 7.24763V6.754Z" fill="#C09457"/>
<path d="M0.0183105 6.74938L0.175164 6.70325L15.9851 59.0001H15.819L0.0183105 6.74938Z" fill="#C09356"/>
<path d="M0.175293 6.70324L0.327533 6.6571L16.1559 59H15.9852L0.175293 6.70324Z" fill="#BF9255"/>
<path d="M0.327637 6.65707L0.48449 6.60632L16.3267 59H16.156L0.327637 6.65707Z" fill="#BF9154"/>
<path d="M0.484375 6.60631L0.641229 6.56018L16.4973 59H16.3266L0.484375 6.60631Z" fill="#BE9053"/>
<path d="M0.641357 6.56017L0.798211 6.51404L16.6681 59H16.4974L0.641357 6.56017Z" fill="#BE8F52"/>
<path d="M0.798096 6.51403L0.950336 6.4679L16.8341 59H16.668L0.798096 6.51403Z" fill="#BD8E52"/>
<path d="M0.950439 6.46789L1.10729 6.42175L17.0049 59H16.8342L0.950439 6.46789Z" fill="#BD8E51"/>
<path d="M1.10718 6.42172L1.26403 6.37097L17.1754 59H17.0047L1.10718 6.42172Z" fill="#BC8D50"/>
<path d="M1.26416 6.37096L1.4164 6.32483L17.3463 58.9999H17.1756L1.26416 6.37096Z" fill="#BC8C4F"/>
<path d="M1.41626 6.32494L1.57311 6.27881L17.5122 59H17.3461L1.41626 6.32494Z" fill="#BB8B4E"/>
<path d="M1.57324 6.2788L1.7301 6.23267L17.683 59H17.5123L1.57324 6.2788Z" fill="#BA8A4E"/>
<path d="M1.72998 6.23266L1.88222 6.18652L17.8536 59H17.6829L1.72998 6.23266Z" fill="#BA894D"/>
<path d="M1.88232 6.18651L2.03918 6.14038L18.0244 59H17.8537L1.88232 6.18651Z" fill="#B9894C"/>
<path d="M2.03906 6.14035L2.19592 6.0896L18.1904 59H18.0243L2.03906 6.14035Z" fill="#B9884B"/>
<path d="M2.19604 6.08959L2.3529 6.04346L18.3612 59H18.1905L2.19604 6.08959Z" fill="#B8874A"/>
<path d="M2.35278 6.04345L2.50502 5.99731L18.5318 59H18.3611L2.35278 6.04345Z" fill="#B8864A"/>
<path d="M2.50513 5.99731L2.66198 5.95117L18.7026 59H18.5319L2.50513 5.99731Z" fill="#B78549"/>
<path d="M2.66187 5.95116L2.81872 5.90503L18.8731 59H18.7024L2.66187 5.95116Z" fill="#B78448"/>
<path d="M2.8186 5.905L2.97084 5.85425L19.0391 58.9999H18.873L2.8186 5.905Z" fill="#B68447"/>
<path d="M2.97095 5.85436L3.1278 5.80823L19.2099 59H19.0392L2.97095 5.85436Z" fill="#B68346"/>
<path d="M3.12793 5.80822L3.28478 5.76208L19.3807 59H19.21L3.12793 5.80822Z" fill="#B58246"/>
<path d="M3.28467 5.76208L3.43691 5.71594L19.5513 59H19.3806L3.28467 5.76208Z" fill="#B58145"/>
<path d="M3.43677 5.71593L3.59362 5.6698L19.7172 59H19.5512L3.43677 5.71593Z" fill="#B48044"/>
<path d="M3.59375 5.66977L3.7506 5.61902L19.8881 59H19.7174L3.59375 5.66977Z" fill="#B48043"/>
<path d="M3.75073 5.61901L3.90297 5.57288L20.0589 59H19.8882L3.75073 5.61901Z" fill="#B37F43"/>
<path d="M3.90283 5.57299L4.05969 5.52686L20.2294 59.0001H20.0588L3.90283 5.57299Z" fill="#B37E42"/>
<path d="M4.05957 5.52685L4.21642 5.48071L20.4 59.0001H20.2293L4.05957 5.52685Z" fill="#B27D41"/>
<path d="M4.21655 5.48058L4.37341 5.43445L20.5662 58.9999H20.4002L4.21655 5.48058Z" fill="#B27D41"/>
<path d="M4.37354 5.43456L4.52578 5.38843L20.7371 59H20.5664L4.37354 5.43456Z" fill="#B17C40"/>
<path d="M4.52563 5.38839L4.68249 5.33765L20.9076 59H20.7369L4.52563 5.38839Z" fill="#B17B3F"/>
<path d="M4.68262 5.33764L4.83947 5.2915L21.0784 59H20.9077L4.68262 5.33764Z" fill="#B07A3E"/>
<path d="M4.83936 5.29149L4.9916 5.24536L21.2444 59H21.0783L4.83936 5.29149Z" fill="#B07A3E"/>
<path d="M4.9917 5.24535L5.14855 5.19922L21.4152 59H21.2445L4.9917 5.24535Z" fill="#B0793D"/>
<path d="M5.14844 5.19921L5.30529 5.15308L21.5858 59H21.4151L5.14844 5.19921Z" fill="#AF783C"/>
<path d="M5.30542 5.15304L5.45766 5.10229L21.7566 58.9999H21.5859L5.30542 5.15304Z" fill="#AF783C"/>
<path d="M5.45752 5.10241L5.61437 5.05627L21.9271 59.0001H21.7564L5.45752 5.10241Z" fill="#AE773B"/>
<path d="M5.6145 5.05627L5.77136 5.01013L22.0934 59H21.9273L5.6145 5.05627Z" fill="#AE763A"/>
<path d="M5.77124 5.01L5.92348 4.96387L22.2639 58.9999H22.0932L5.77124 5.01Z" fill="#AD753A"/>
<path d="M5.92358 4.96398L6.08044 4.91785L22.4347 59H22.264L5.92358 4.96398Z" fill="#AD7539"/>
<path d="M6.08032 4.91781L6.23718 4.86707L22.6053 59H22.4346L6.08032 4.91781Z" fill="#AC7439"/>
<path d="M6.2373 4.86706L6.39416 4.82092L22.7715 59H22.6054L6.2373 4.86706Z" fill="#AC7338"/>
<path d="M6.39404 4.82091L6.54628 4.77478L22.9421 59H22.7714L6.39404 4.82091Z" fill="#AB7337"/>
<path d="M6.54639 4.77477L6.70324 4.72864L23.1129 59H22.9422L6.54639 4.77477Z" fill="#AB7237"/>
<path d="M6.70312 4.72875L6.85998 4.68262L23.2835 59.0001H23.1128L6.70312 4.72875Z" fill="#AB7136"/>
<path d="M6.86011 4.68261L7.01235 4.63647L23.4497 59.0001H23.2836L6.86011 4.68261Z" fill="#AA7136"/>
<path d="M7.01221 4.63644L7.16906 4.58569L23.6202 59H23.4495L7.01221 4.63644Z" fill="#AA7035"/>
<path d="M7.16919 4.58568L7.32604 4.53955L23.7911 59H23.6204L7.16919 4.58568Z" fill="#A96F34"/>
<path d="M7.32593 4.53954L7.47817 4.49341L23.9616 59H23.7909L7.32593 4.53954Z" fill="#A96F34"/>
<path d="M7.47827 4.4934L7.63513 4.44727L24.1324 59H23.9617L7.47827 4.4934Z" fill="#A86E33"/>
<path d="M7.63501 4.44726L7.79186 4.40112L24.2984 59H24.1323L7.63501 4.44726Z" fill="#A86D33"/>
<path d="M7.79199 4.40109L7.94423 4.35034L24.4692 59H24.2985L7.79199 4.40109Z" fill="#A76D32"/>
<path d="M7.94409 4.35033L8.10095 4.3042L24.6398 59H24.4691L7.94409 4.35033Z" fill="#A76C32"/>
<path d="M8.10107 4.30419L8.25793 4.25806L24.8106 59H24.6399L8.10107 4.30419Z" fill="#A76B31"/>
<path d="M8.25806 4.25817L8.41491 4.21204L24.9768 59.0001H24.8107L8.25806 4.25817Z" fill="#A66B31"/>
<path d="M8.41479 4.21203L8.56704 4.16589L25.1474 59H24.9767L8.41479 4.21203Z" fill="#A66A30"/>
<path d="M8.56689 4.16586L8.72375 4.11511L25.3179 59H25.1472L8.56689 4.16586Z" fill="#A56930"/>
<path d="M8.72388 4.1151L8.88073 4.06897L25.4888 59H25.3181L8.72388 4.1151Z" fill="#A5692F"/>
<path d="M8.88062 4.06896L9.03286 4.02283L25.5302 58.5756V59H25.4886L8.88062 4.06896Z" fill="#A5682F"/>
<path d="M9.03296 4.02282L9.18981 3.97668L25.5303 58.0127V58.5756L9.03296 4.02282Z" fill="#A4682E"/>
<path d="M9.1897 3.97668L9.34655 3.93054L25.5301 57.4545V58.0127L9.1897 3.97668Z" fill="#A4672E"/>
<path d="M9.34668 3.93053L9.49892 3.8844L25.5303 56.8917V57.4545L9.34668 3.93053Z" fill="#A3662D"/>
<path d="M9.49878 3.88449L9.65563 3.83374L25.5301 56.3289V56.8918L9.49878 3.88449Z" fill="#A3662D"/>
<path d="M9.65576 3.83373L9.81262 3.7876L25.5303 55.7707V56.3289L9.65576 3.83373Z" fill="#A2652C"/>
<path d="M9.8125 3.78759L9.96935 3.74146L25.5301 55.2079V55.7707L9.8125 3.78759Z" fill="#A2642C"/>
<path d="M9.96948 3.74145L10.1217 3.69531L25.5303 54.645V55.2079L9.96948 3.74145Z" fill="#A2642B"/>
<path d="M10.1216 3.6953L10.2784 3.64917L25.5301 54.0868V54.645L10.1216 3.6953Z" fill="#A1632B"/>
<path d="M10.2786 3.64914L10.4354 3.59839L25.5303 53.5239V54.0868L10.2786 3.64914Z" fill="#A1632A"/>
<path d="M10.4353 3.59838L10.5875 3.55225L25.5301 52.9657V53.5239L10.4353 3.59838Z" fill="#A0622A"/>
<path d="M10.5876 3.55224L10.7445 3.5061L25.5303 52.4029V52.9657L10.5876 3.55224Z" fill="#A0622A"/>
<path d="M10.7444 3.50622L10.9012 3.46008L25.5301 51.8402V52.403L10.7444 3.50622Z" fill="#A06129"/>
<path d="M10.9014 3.45995L11.0536 3.41382L25.5303 51.2818V51.84L10.9014 3.45995Z" fill="#9F6029"/>
<path d="M11.0535 3.41391L11.2103 3.36316L25.5301 50.7191V51.2819L11.0535 3.41391Z" fill="#9F6028"/>
<path d="M11.2104 3.36315L11.3673 3.31702L25.5303 50.1563V50.7191L11.2104 3.36315Z" fill="#9F5F28"/>
<path d="M11.3672 3.31701L11.5194 3.27087L25.5301 49.598V50.1562L11.3672 3.31701Z" fill="#9E5F28"/>
<path d="M11.5195 3.27087L11.6764 3.22473L25.5302 49.0352V49.598L11.5195 3.27087Z" fill="#9E5E27"/>
<path d="M11.6763 3.22472L11.8331 3.17859L25.5301 48.477V49.0352L11.6763 3.22472Z" fill="#9E5E27"/>
<path d="M11.8333 3.17858L11.9901 3.13245L25.5303 47.9141V48.477L11.8333 3.17858Z" fill="#9D5D27"/>
<path d="M11.99 3.13241L12.1422 3.08167L25.5301 47.3513V47.9141L11.99 3.13241Z" fill="#9D5D26"/>
<path d="M12.1423 3.08166L12.2992 3.03552L25.5302 46.7931V47.3513L12.1423 3.08166Z" fill="#9D5C26"/>
<path d="M12.2991 3.03564L12.4559 2.9895L25.5301 46.2303V46.7932L12.2991 3.03564Z" fill="#9C5C26"/>
<path d="M12.4561 2.98937L12.6083 2.94324L25.5303 45.6674V46.2302L12.4561 2.98937Z" fill="#9C5B26"/>
<path d="M12.6082 2.94323L12.765 2.89709L25.5301 45.1092V45.6674L12.6082 2.94323Z" fill="#9C5B25"/>
<path d="M12.7651 2.89718L12.922 2.84644L25.5302 44.5464V45.1092L12.7651 2.89718Z" fill="#9B5A25"/>
<path d="M12.9221 2.84643L13.0744 2.80029L25.5304 43.9882V44.5464L12.9221 2.84643Z" fill="#9B5A25"/>
<path d="M13.0742 2.80028L13.2311 2.75415L25.5302 43.4254V43.9882L13.0742 2.80028Z" fill="#9B5A25"/>
<path d="M13.231 2.75416L22.3423 0H25.5301V43.4254L13.231 2.75416Z" fill="#9B5A25"/>
</g>
<mask id="mask1_181_6287" style="mask-type:luminance" maskUnits="userSpaceOnUse" x="25" y="0" width="27" height="21">
<path d="M51.0513 7.87036V20.0357H39.398V16.4742L25.5303 12.1977V0L51.0513 7.87036Z" fill="white"/>
</mask>
<g mask="url(#mask1_181_6287)">
<path d="M28.8427 0L25.5303 11.5287V0H28.8427Z" fill="#FDF5B1"/>
<path d="M28.8703 0L29.0318 0.0461334L25.5303 12.2392V11.5287L28.8427 0H28.8703Z" fill="#FDF5B1"/>
<path d="M29.0318 0.0461426L29.2209 0.101503L25.5303 12.9497V12.2392L29.0318 0.0461426Z" fill="#FCF3AF"/>
<path d="M29.2209 0.101562L29.4101 0.156923L25.5303 13.6602V12.9497L29.2209 0.101562Z" fill="#FAF0AD"/>
<path d="M29.4101 0.15686L29.5992 0.21222L25.5303 14.3706V13.6601L29.4101 0.15686Z" fill="#F9EEAB"/>
<path d="M29.5992 0.21228L29.7884 0.263027L25.5303 15.0857V14.3706L29.5992 0.21228Z" fill="#F8ECAA"/>
<path d="M29.7884 0.262939L29.9775 0.3183L25.5303 15.7961V15.0856L29.7884 0.262939Z" fill="#F7EAA8"/>
<path d="M29.9775 0.318237L30.1667 0.373597L25.5303 16.5064V15.796L29.9775 0.318237Z" fill="#F5E9A6"/>
<path d="M30.1667 0.373657L30.3558 0.429017L25.5856 17.0232L25.5303 17.0094V16.5065L30.1667 0.373657Z" fill="#F4E7A5"/>
<path d="M30.3559 0.429297L25.5847 17.0248L25.7754 17.0796L30.5466 0.484109L30.3559 0.429297Z" fill="#F3E5A3"/>
<path d="M30.5491 0.48423L25.7778 17.0797L25.9685 17.1345L30.7397 0.539043L30.5491 0.48423Z" fill="#F2E4A2"/>
<path d="M30.7329 0.533301L25.9617 17.1288L26.1523 17.1836L30.9235 0.588113L30.7329 0.533301Z" fill="#F1E2A0"/>
<path d="M30.9216 0.588234L26.1504 17.1837L26.341 17.2385L31.1123 0.643047L30.9216 0.588234Z" fill="#F0E19F"/>
<path d="M31.1147 0.643286L26.3435 17.2388L26.5342 17.2936L31.3054 0.698099L31.1147 0.643286Z" fill="#EFDF9E"/>
<path d="M31.302 0.702616L26.5308 17.2981L26.7214 17.3529L31.4926 0.757428L31.302 0.702616Z" fill="#EEDE9C"/>
<path d="M31.4905 0.757546L26.7192 17.353L26.9099 17.4078L31.6811 0.812358L31.4905 0.757546Z" fill="#EDDC9B"/>
<path d="M31.6792 0.811255L26.908 17.4067L27.0986 17.4616L31.8698 0.866067L31.6792 0.811255Z" fill="#EDDB99"/>
<path d="M31.8677 0.866188L27.0964 17.4617L27.2871 17.5165L32.0583 0.921001L31.8677 0.866188Z" fill="#ECDA98"/>
<path d="M32.0561 0.91648L27.2849 17.512L27.4756 17.5668L32.2468 0.971292L32.0561 0.91648Z" fill="#EBD897"/>
<path d="M32.2492 0.971413L27.478 17.5669L27.6687 17.6217L32.4399 1.02623L32.2492 0.971413Z" fill="#EAD795"/>
<path d="M32.4333 1.02512L27.6621 17.6206L27.8528 17.6754L32.624 1.07993L32.4333 1.02512Z" fill="#E9D594"/>
<path d="M32.6218 1.08006L27.8506 17.6755L28.0412 17.7303L32.8125 1.13487L32.6218 1.08006Z" fill="#E8D493"/>
<path d="M32.8149 1.13511L28.0437 17.7306L28.2344 17.7854L33.0056 1.18992L32.8149 1.13511Z" fill="#E7D392"/>
<path d="M33.0034 1.19004L28.2322 17.7855L28.4228 17.8403L33.194 1.24485L33.0034 1.19004Z" fill="#E6D190"/>
<path d="M33.1875 1.24363L28.4163 17.8391L28.6069 17.8939L33.3781 1.29844L33.1875 1.24363Z" fill="#E6D08F"/>
<path d="M33.3806 1.29868L28.6094 17.8942L28.8 17.949L33.5712 1.3535L33.3806 1.29868Z" fill="#E5CF8E"/>
<path d="M33.5691 1.34898L28.7979 17.9445L28.9885 17.9993L33.7597 1.40379L33.5691 1.34898Z" fill="#E4CE8D"/>
<path d="M33.7578 1.40391L28.9866 17.9994L29.1772 18.0542L33.9484 1.45872L33.7578 1.40391Z" fill="#E3CC8B"/>
<path d="M33.9463 1.45762L29.175 18.0531L29.3657 18.1079L34.1369 1.51243L33.9463 1.45762Z" fill="#E2CB8A"/>
<path d="M34.135 1.51267L29.3638 18.1082L29.5544 18.163L34.3256 1.56749L34.135 1.51267Z" fill="#E2CA89"/>
<path d="M34.3235 1.56748L29.5522 18.163L29.7429 18.2178L34.5141 1.62229L34.3235 1.56748Z" fill="#E1C988"/>
<path d="M34.5154 1.62693L29.7441 18.2224L29.9348 18.2772L34.706 1.68174L34.5154 1.62693Z" fill="#E0C787"/>
<path d="M34.7036 1.68186L29.9324 18.2773L30.123 18.3322L34.8942 1.73667L34.7036 1.68186Z" fill="#E0C686"/>
<path d="M34.8879 1.73093L30.1167 18.3264L30.3074 18.3812L35.0786 1.78575L34.8879 1.73093Z" fill="#DFC584"/>
<path d="M35.0764 1.78587L30.3052 18.3813L30.4958 18.4362L35.267 1.84068L35.0764 1.78587Z" fill="#DEC483"/>
<path d="M35.2695 1.8408L30.4983 18.4363L30.6889 18.4911L35.4602 1.89561L35.2695 1.8408Z" fill="#DDC282"/>
<path d="M35.458 1.89585L30.6868 18.4913L30.8774 18.5461L35.6486 1.95066L35.458 1.89585Z" fill="#DDC181"/>
<path d="M35.6421 1.94944L30.8708 18.5449L31.0615 18.5997L35.8327 2.00425L35.6421 1.94944Z" fill="#DCC080"/>
<path d="M35.8352 2.0045L31.064 18.6L31.2546 18.6548L36.0258 2.05931L35.8352 2.0045Z" fill="#DBBF7F"/>
<path d="M36.0237 2.0593L31.2524 18.6548L31.4431 18.7096L36.2143 2.11412L36.0237 2.0593Z" fill="#DABE7E"/>
<path d="M36.2121 2.10972L31.4409 18.7052L31.6316 18.76L36.4028 2.16453L36.2121 2.10972Z" fill="#DABC7D"/>
<path d="M36.4009 2.16343L31.6296 18.7589L31.8203 18.8137L36.5915 2.21824L36.4009 2.16343Z" fill="#D9BB7B"/>
<path d="M36.5893 2.21836L31.8181 18.8138L32.0088 18.8687L36.78 2.27318L36.5893 2.21836Z" fill="#D8BA7A"/>
<path d="M36.7778 2.27329L32.0066 18.8688L32.1972 18.9236L36.9685 2.32811L36.7778 2.27329Z" fill="#D7B979"/>
<path d="M36.9709 2.32823L32.1997 18.9237L32.3904 18.9785L37.1616 2.38304L36.9709 2.32823Z" fill="#D7B878"/>
<path d="M37.1594 2.38328L32.3882 18.9788L32.5788 19.0336L37.3501 2.43809L37.1594 2.38328Z" fill="#D6B777"/>
<path d="M37.3435 2.43687L32.5723 19.0323L32.7629 19.0872L37.5341 2.49168L37.3435 2.43687Z" fill="#D5B576"/>
<path d="M37.5366 2.4918L32.7654 19.0873L32.956 19.1421L37.7273 2.54661L37.5366 2.4918Z" fill="#D4B475"/>
<path d="M37.7239 2.54661L32.9526 19.1421L33.1433 19.1969L37.9145 2.60142L37.7239 2.54661Z" fill="#D4B374"/>
<path d="M37.9123 2.60166L33.1411 19.1971L33.3318 19.252L38.103 2.65648L37.9123 2.60166Z" fill="#D3B273"/>
<path d="M38.1011 2.65525L33.3298 19.2507L33.5205 19.3055L38.2917 2.71006L38.1011 2.65525Z" fill="#D2B172"/>
<path d="M38.2898 2.71018L33.5186 19.3057L33.7092 19.3605L38.4804 2.765L38.2898 2.71018Z" fill="#D2B071"/>
<path d="M38.4783 2.76511L33.707 19.3606L33.8977 19.4154L38.6689 2.81993L38.4783 2.76511Z" fill="#D1AF70"/>
<path d="M38.6714 2.82017L33.9001 19.4156L34.0908 19.4705L38.862 2.87498L38.6714 2.82017Z" fill="#D0AE6F"/>
<path d="M38.8554 2.87388L34.0842 19.4694L34.2749 19.5242L39.0461 2.92869L38.8554 2.87388Z" fill="#D0AD6E"/>
<path d="M39.0439 2.92405L34.2727 19.5195L34.4634 19.5743L39.2346 2.97886L39.0439 2.92405Z" fill="#CFAB6D"/>
<path d="M39.2368 2.9791L34.4656 19.5746L34.6562 19.6294L39.4274 3.03392L39.2368 2.9791Z" fill="#CEAA6C"/>
<path d="M39.4255 3.03404L34.6543 19.6295L34.8449 19.6843L39.6162 3.08885L39.4255 3.03404Z" fill="#CEA96B"/>
<path d="M39.614 3.08897L34.8428 19.6844L35.0334 19.7393L39.8046 3.14378L39.614 3.08897Z" fill="#CDA86A"/>
<path d="M39.8027 3.14268L35.0315 19.7382L35.2221 19.793L39.9934 3.19749L39.8027 3.14268Z" fill="#CCA769"/>
<path d="M39.9912 3.19761L35.22 19.7931L35.4106 19.8479L40.1818 3.25242L39.9912 3.19761Z" fill="#CCA668"/>
<path d="M40.1797 3.25254L35.4084 19.848L35.5991 19.9028L40.3703 3.30736L40.1797 3.25254Z" fill="#CBA567"/>
<path d="M40.3684 3.30747L35.5972 19.903L35.7878 19.9578L40.559 3.36228L40.3684 3.30747Z" fill="#CAA466"/>
<path d="M40.5569 3.35667L35.7856 19.9521L35.9763 20.007L40.7475 3.41148L40.5569 3.35667Z" fill="#CAA365"/>
<path d="M40.745 3.41382L40.9342 3.46918L36.1686 20.0357H36.0579L35.9749 20.008L40.745 3.41382Z" fill="#C9A264"/>
<path d="M40.9343 3.46924L41.1188 3.51999L36.3763 20.0357H36.1687L40.9343 3.46924Z" fill="#C9A163"/>
<path d="M41.1187 3.52002L41.3079 3.57538L36.5792 20.0358H36.3762L41.1187 3.52002Z" fill="#C8A062"/>
<path d="M41.308 3.57532L41.4972 3.63068L36.7823 20.0357H36.5793L41.308 3.57532Z" fill="#C79F61"/>
<path d="M41.4971 3.63074L41.6862 3.6861L36.9898 20.0358H36.7822L41.4971 3.63074Z" fill="#C79E60"/>
<path d="M41.6864 3.68604L41.8755 3.73678L37.193 20.0357H36.99L41.6864 3.68604Z" fill="#C69D60"/>
<path d="M41.8754 3.73682L42.0646 3.79218L37.3959 20.0357H37.1929L41.8754 3.73682Z" fill="#C59C5F"/>
<path d="M42.0645 3.79211L42.2536 3.84747L37.6034 20.0357H37.3958L42.0645 3.79211Z" fill="#C59B5E"/>
<path d="M42.2538 3.84753L42.4429 3.90289L37.8065 20.0357H37.6035L42.2538 3.84753Z" fill="#C49A5D"/>
<path d="M42.4428 3.90283L42.632 3.95819L38.0094 20.0357H37.8064L42.4428 3.90283Z" fill="#C4995C"/>
<path d="M42.6318 3.95825L42.821 4.009L38.2169 20.0357H38.0093L42.6318 3.95825Z" fill="#C3985B"/>
<path d="M42.8212 4.00891L43.0103 4.06427L38.42 20.0357H38.217L42.8212 4.00891Z" fill="#C2975A"/>
<path d="M43.0104 4.06433L43.1996 4.11969L38.6232 20.0357H38.4202L43.0104 4.06433Z" fill="#C29659"/>
<path d="M43.1995 4.11975L43.3886 4.17511L38.8306 20.0358H38.623L43.1995 4.11975Z" fill="#C19558"/>
<path d="M43.3885 4.17505L43.5777 4.2258L39.0336 20.0357H38.8306L43.3885 4.17505Z" fill="#C19457"/>
<path d="M43.5778 4.22583L43.767 4.28119L39.2367 20.0357H39.0337L43.5778 4.22583Z" fill="#C09356"/>
<path d="M43.7669 4.28125L43.956 4.33661L39.4442 20.0358H39.2366L43.7669 4.28125Z" fill="#BF9255"/>
<path d="M43.9559 4.33655L44.1451 4.39191L39.6471 20.0357H39.4441L43.9559 4.33655Z" fill="#BF9155"/>
<path d="M44.1452 4.39197L44.3298 4.44271L39.8502 20.0358H39.6472L44.1452 4.39197Z" fill="#BE9054"/>
<path d="M44.3296 4.44263L44.5188 4.49799L40.0531 20.0357H39.8501L44.3296 4.44263Z" fill="#BE9053"/>
<path d="M44.5189 4.49805L44.7081 4.55341L40.2608 20.0358H40.0532L44.5189 4.49805Z" fill="#BD8F52"/>
<path d="M44.708 4.55334L44.8972 4.6087L40.4637 20.0357H40.2607L44.708 4.55334Z" fill="#BD8E51"/>
<path d="M44.897 4.60876L45.0862 4.65951L40.6666 20.0358H40.4636L44.897 4.60876Z" fill="#BC8D50"/>
<path d="M45.0863 4.65955L45.2755 4.71491L40.8743 20.0358H40.6667L45.0863 4.65955Z" fill="#BC8C4F"/>
<path d="M45.2754 4.71484L45.4645 4.7702L41.0773 20.0357H40.8743L45.2754 4.71484Z" fill="#BB8B4E"/>
<path d="M45.4644 4.77026L45.6536 4.82562L41.2801 20.0358H41.0771L45.4644 4.77026Z" fill="#BB8A4E"/>
<path d="M45.6537 4.82556L45.8429 4.88092L41.4879 20.0357H41.2803L45.6537 4.82556Z" fill="#BA894D"/>
<path d="M45.843 4.88086L46.0322 4.93161L41.691 20.0357H41.488L45.843 4.88086Z" fill="#BA894C"/>
<path d="M46.0321 4.93164L46.2212 4.987L41.8939 20.0357H41.6909L46.0321 4.93164Z" fill="#B9884B"/>
<path d="M46.2211 4.98706L46.4103 5.04242L42.1014 20.0358H41.8938L46.2211 4.98706Z" fill="#B8874A"/>
<path d="M46.4102 5.04236L46.5993 5.09772L42.3043 20.0357H42.1013L46.4102 5.04236Z" fill="#B8864A"/>
<path d="M46.5995 5.09778L46.7886 5.14852L42.5074 20.0358H42.3044L46.5995 5.09778Z" fill="#B78549"/>
<path d="M46.7885 5.14844L46.9777 5.2038L42.7149 20.0357H42.5073L46.7885 5.14844Z" fill="#B78448"/>
<path d="M46.9778 5.20386L47.167 5.25922L42.9181 20.0357H42.7151L46.9778 5.20386Z" fill="#B68447"/>
<path d="M47.1669 5.25916L47.356 5.31452L43.121 20.0357H42.918L47.1669 5.25916Z" fill="#B68346"/>
<path d="M47.3559 5.31458L47.5404 5.36532L43.3284 20.0357H43.1208L47.3559 5.31458Z" fill="#B58246"/>
<path d="M47.5406 5.36536L47.7297 5.42072L43.5316 20.0358H43.3286L47.5406 5.36536Z" fill="#B58145"/>
<path d="M47.7296 5.42065L47.9188 5.47601L43.7345 20.0357H43.5315L47.7296 5.42065Z" fill="#B48044"/>
<path d="M47.9187 5.47607L48.1078 5.53143L43.942 20.0358H43.7344L47.9187 5.47607Z" fill="#B48043"/>
<path d="M48.108 5.53137L48.2971 5.58673L44.1451 20.0357H43.9421L48.108 5.53137Z" fill="#B37F43"/>
<path d="M48.297 5.58679L48.4862 5.63754L44.348 20.0358H44.145L48.297 5.58679Z" fill="#B37E42"/>
<path d="M48.4863 5.63757L48.6755 5.69293L44.5557 20.0358H44.3481L48.4863 5.63757Z" fill="#B27D41"/>
<path d="M48.6756 5.69287L48.8648 5.74823L44.7589 20.0357H44.5559L48.6756 5.69287Z" fill="#B27D40"/>
<path d="M48.8647 5.74829L49.0538 5.80365L44.9618 20.0358H44.7588L48.8647 5.74829Z" fill="#B17C40"/>
<path d="M49.0537 5.80359L49.2428 5.85434L45.1693 20.0357H44.9617L49.0537 5.80359Z" fill="#B17B3F"/>
<path d="M49.243 5.85425L49.4322 5.90961L45.3724 20.0357H45.1694L49.243 5.85425Z" fill="#B07A3E"/>
<path d="M49.4321 5.90967L49.6212 5.96503L45.5753 20.0357H45.3723L49.4321 5.90967Z" fill="#B07A3E"/>
<path d="M49.6211 5.96497L49.8102 6.02033L45.7828 20.0357H45.5752L49.6211 5.96497Z" fill="#B0793D"/>
<path d="M49.8104 6.02039L49.9996 6.07113L45.9859 20.0357H45.783L49.8104 6.02039Z" fill="#AF783C"/>
<path d="M49.9994 6.07117L50.1886 6.12653L46.1888 20.0357H45.9858L49.9994 6.07117Z" fill="#AF783C"/>
<path d="M50.1887 6.12646L50.3779 6.18182L46.3966 20.0357H46.189L50.1887 6.12646Z" fill="#AE773B"/>
<path d="M50.3778 6.18188L50.5669 6.23725L46.5995 20.0357H46.3965L50.3778 6.18188Z" fill="#AE763A"/>
<path d="M50.5668 6.2373L50.7514 6.29266L46.8023 20.0358H46.5994L50.5668 6.2373Z" fill="#AD753A"/>
<path d="M50.7515 6.2926L50.9407 6.34335L47.0101 20.0357H46.8025L50.7515 6.2926Z" fill="#AD7539"/>
<path d="M50.9406 6.34338L51.0513 6.37568V6.68016L47.213 20.0358H47.01L50.9406 6.34338Z" fill="#AC7439"/>
<path d="M51.0512 7.39063L47.4159 20.0358H47.2129L51.0512 6.68018V7.39063Z" fill="#AC7338"/>
<path d="M51.0513 8.10569L47.619 20.0358H47.416L51.0513 7.39062V8.10569Z" fill="#AC7337"/>
<path d="M51.0512 8.81617L47.8265 20.0358H47.6189L51.0512 8.10571V8.81617Z" fill="#AB7237"/>
<path d="M51.0514 9.52662L48.0296 20.0358H47.8267L51.0514 8.81616V9.52662Z" fill="#AB7136"/>
<path d="M51.0513 10.2371L48.2325 20.0358H48.0295L51.0513 9.52661V10.2371Z" fill="#AA7136"/>
<path d="M51.0514 10.9475L48.4403 20.0358H48.2327L51.0514 10.2371V10.9475Z" fill="#AA7035"/>
<path d="M51.0513 11.6626L48.6432 20.0358H48.4402L51.0513 10.9475V11.6626Z" fill="#A97035"/>
<path d="M51.0512 12.3731L48.8461 20.0358H48.6431L51.0512 11.6626V12.3731Z" fill="#A96F34"/>
<path d="M51.0514 13.0834L49.0538 20.0357H48.8462L51.0514 12.3729V13.0834Z" fill="#A96E34"/>
<path d="M51.0513 13.7938L49.2567 20.0357H49.0537L51.0513 13.0834V13.7938Z" fill="#A86E33"/>
<path d="M51.0512 14.509L49.4596 20.0358H49.2566L51.0512 13.7939V14.509Z" fill="#A86D33"/>
<path d="M51.0513 15.2194L49.6673 20.0357H49.4597L51.0513 14.5089V15.2194Z" fill="#A76C32"/>
<path d="M51.0515 15.9298L49.8705 20.0357H49.6675L51.0515 15.2194V15.9298Z" fill="#A76C32"/>
<path d="M51.0514 16.6403L50.0733 20.0357H49.8704L51.0514 15.9298V16.6403Z" fill="#A76B31"/>
<path d="M51.0513 17.3508L50.2808 20.0358H50.0732L51.0513 16.6404V17.3508Z" fill="#A66B31"/>
<path d="M51.0514 18.0659L50.484 20.0358H50.281L51.0514 17.3508V18.0659Z" fill="#A66A30"/>
<path d="M51.0513 18.7764L50.6869 20.0358H50.4839L51.0513 18.0659V18.7764Z" fill="#A56930"/>
<path d="M51.0515 19.4868L50.8946 20.0358H50.687L51.0515 18.7764V19.4868Z" fill="#A5692F"/>
<path d="M50.8945 20.0357L51.0514 19.4867V20.0357H50.8945Z" fill="#A5682F"/>
</g>
<mask id="mask2_181_6287" style="mask-type:luminance" maskUnits="userSpaceOnUse" x="25" y="43" width="14" height="16">
<path d="M38.6737 52.0477C38.1708 52.3983 37.6818 52.7397 37.1882 53.0534C36.8606 53.2656 36.5469 53.4732 36.2286 53.6716C35.9149 53.8838 35.5966 54.0684 35.2921 54.2575C34.6739 54.6312 34.0742 54.9956 33.4929 55.3093C33.4237 55.3555 33.3545 55.3924 33.2715 55.4385C32.5933 55.8122 31.9613 56.1536 31.3754 56.4581C30.1344 57.0901 29.1056 57.5699 28.4044 57.8836C28.0399 58.0358 27.7631 58.1512 27.5878 58.2342C27.5417 58.248 27.4956 58.2711 27.4586 58.2803C27.4217 58.2896 27.3987 58.3034 27.3894 58.3172H27.3756L25.5303 58.9354V46.3502C26.9789 45.6121 28.9811 44.528 31.0155 43.1578C31.0847 43.1209 31.1539 43.0748 31.2277 43.0194L38.6783 52.0477H38.6737Z" fill="white"/>
</mask>
<g mask="url(#mask2_181_6287)">
<path d="M25.5303 55.6323L27.9984 58.9355H25.5303V55.6323Z" fill="#FDF5B1"/>
<path d="M25.5303 55.2725L28.266 58.9355H27.9984L25.5303 55.6323V55.2725Z" fill="#FDF5B1"/>
<path d="M25.5303 54.9126L28.5336 58.9354H28.266L25.5303 55.2724V54.9126Z" fill="#FCF3AF"/>
<path d="M25.5303 54.5527L28.8057 58.9354H28.5336L25.5303 54.9126V54.5527Z" fill="#FAF0AD"/>
<path d="M25.5303 54.1929L29.0733 58.9354H28.8057L25.5303 54.5527V54.1929Z" fill="#F9EEAB"/>
<path d="M25.5303 53.8331L29.3409 58.9355H29.0733L25.5303 54.193V53.8331Z" fill="#F8ECAA"/>
<path d="M25.5303 53.4733L29.6085 58.9355H29.3409L25.5303 53.8331V53.4733Z" fill="#F7EAA8"/>
<path d="M25.5303 53.1134L29.8807 58.9354H29.6085L25.5303 53.4732V53.1134Z" fill="#F5E9A6"/>
<path d="M25.5303 52.7535L30.1482 58.9354H29.8807L25.5303 53.1134V52.7535Z" fill="#F4E7A5"/>
<path d="M25.5303 52.3937L30.4158 58.9354H30.1482L25.5303 52.7535V52.3937Z" fill="#F3E5A3"/>
<path d="M25.5303 52.0338L30.688 58.9354H30.4158L25.5303 52.3937V52.0338Z" fill="#F2E4A2"/>
<path d="M25.5303 51.674L30.9556 58.9353H30.688L25.5303 52.0338V51.674Z" fill="#F1E2A0"/>
<path d="M25.5303 51.3096L31.1401 58.8247L30.9925 58.9354H30.9556L25.5303 51.674V51.3096Z" fill="#F0E19F"/>
<path d="M25.5303 50.9497L31.3154 58.6955L31.1401 58.8247L25.5303 51.3095V50.9497Z" fill="#EFDF9E"/>
<path d="M25.5303 50.5898L31.4861 58.5663L31.3154 58.6955L25.5303 50.9497V50.5898Z" fill="#EEDE9C"/>
<path d="M25.5303 50.2301L31.6614 58.4418L31.4861 58.5664L25.5303 50.5899V50.2301Z" fill="#EDDC9B"/>
<path d="M25.5303 49.8702L31.8321 58.3127L31.6614 58.4418L25.5303 50.2301V49.8702Z" fill="#EDDB99"/>
<path d="M25.5303 49.5104L32.0028 58.1835L31.8321 58.3126L25.5303 49.8702V49.5104Z" fill="#ECDA98"/>
<path d="M25.5303 49.1505L32.1781 58.0543L32.0028 58.1834L25.5303 49.5104V49.1505Z" fill="#EBD897"/>
<path d="M25.5303 48.7908L32.3488 57.9252L32.1781 58.0544L25.5303 49.1506V48.7908Z" fill="#EAD795"/>
<path d="M25.5303 48.4309L32.5241 57.796L32.3488 57.9252L25.5303 48.7907V48.4309Z" fill="#E9D594"/>
<path d="M25.5303 48.071L32.6948 57.6668L32.5241 57.796L25.5303 48.4309V48.071Z" fill="#E8D493"/>
<path d="M25.5303 47.7112L32.8655 57.5376L32.6948 57.6668L25.5303 48.071V47.7112Z" fill="#E7D392"/>
<path d="M25.5303 47.3513L33.0408 57.4084L32.8655 57.5376L25.5303 47.7112V47.3513Z" fill="#E6D190"/>
<path d="M25.5303 46.9915L33.2115 57.2792L33.0408 57.4084L25.5303 47.3513V46.9915Z" fill="#E6D08F"/>
<path d="M25.5303 46.6317L33.3868 57.1501L33.2115 57.2793L25.5303 46.9916V46.6317Z" fill="#E5CF8E"/>
<path d="M25.5303 46.2719L33.5575 57.0209L33.3868 57.1501L25.5303 46.6317V46.2719Z" fill="#E4CE8D"/>
<path d="M25.5303 45.912L33.7328 56.8917L33.5575 57.0209L25.5303 46.2718V45.912Z" fill="#E3CC8B"/>
<path d="M25.5303 45.5521L33.9035 56.7625L33.7328 56.8917L25.5303 45.912V45.5521Z" fill="#E2CB8A"/>
<path d="M25.5303 45.2015L25.5349 45.1969L34.0742 56.6334L33.9035 56.7625L25.5303 45.5521V45.2015Z" fill="#E2CA89"/>
<path d="M25.7069 45.076L25.5332 45.2057L34.0735 56.6425L34.2472 56.5128L25.7069 45.076Z" fill="#E1C988"/>
<path d="M25.88 44.9353L25.7063 45.0651L34.2486 56.5004L34.4223 56.3706L25.88 44.9353Z" fill="#E0C787"/>
<path d="M26.0509 44.8141L25.8772 44.9438L34.4175 56.3807L34.5912 56.2509L26.0509 44.8141Z" fill="#E0C686"/>
<path d="M26.226 44.6869L26.0522 44.8167L34.5925 56.2535L34.7663 56.1238L26.226 44.6869Z" fill="#DFC584"/>
<path d="M26.4027 44.5481L26.229 44.6779L34.7713 56.1132L34.945 55.9834L26.4027 44.5481Z" fill="#DEC483"/>
<path d="M26.57 44.4298L26.3962 44.5596L34.9365 55.9964L35.1103 55.8667L26.57 44.4298Z" fill="#DDC282"/>
<path d="M26.7438 44.2998L26.5701 44.4296L35.1104 55.8664L35.2841 55.7367L26.7438 44.2998Z" fill="#DDC181"/>
<path d="M26.9169 44.1592L26.7432 44.2889L35.2854 55.7243L35.4592 55.5945L26.9169 44.1592Z" fill="#DCC080"/>
<path d="M27.087 44.032L26.9133 44.1617L35.4556 55.5971L35.6293 55.4673L27.087 44.032Z" fill="#DBBF7F"/>
<path d="M27.2628 43.9108L27.0891 44.0405L35.6294 55.4774L35.8031 55.3476L27.2628 43.9108Z" fill="#DABE7E"/>
<path d="M27.4354 43.7748L27.2617 43.9045L35.804 55.3399L35.9777 55.2101L27.4354 43.7748Z" fill="#DABC7D"/>
<path d="M27.6068 43.6536L27.4331 43.7833L35.9734 55.2202L36.1471 55.0904L27.6068 43.6536Z" fill="#D9BB7B"/>
<path d="M27.777 43.5264L27.6033 43.6561L36.1436 55.093L36.3173 54.9632L27.777 43.5264Z" fill="#D8BA7A"/>
<path d="M27.9535 43.3829L27.7798 43.5127L36.3221 54.948L36.4958 54.8183L27.9535 43.3829Z" fill="#D7B979"/>
<path d="M28.1263 43.2595L27.9526 43.3893L36.4949 54.8246L36.6686 54.6949L28.1263 43.2595Z" fill="#D7B878"/>
<path d="M28.2987 43.1411L28.125 43.2709L36.6653 54.7077L36.839 54.578L28.2987 43.1411Z" fill="#D6B777"/>
<path d="M28.2983 43.1347L28.4506 43.0194H28.4829L37.0129 54.442L36.8376 54.5712L28.2983 43.1347Z" fill="#D5B576"/>
<path d="M28.7505 43.0194L37.1837 54.3129L37.013 54.442L28.4829 43.0194H28.7505Z" fill="#D4B475"/>
<path d="M29.0181 43.0194L37.3544 54.1837L37.1837 54.3129L28.7505 43.0194H29.0181Z" fill="#D4B374"/>
<path d="M29.2856 43.0194L37.5297 54.0545L37.3544 54.1837L29.0181 43.0194H29.2856Z" fill="#D3B273"/>
<path d="M29.5578 43.0194L37.7004 53.9253L37.5297 54.0545L29.2856 43.0194H29.5578Z" fill="#D2B172"/>
<path d="M29.8254 43.0194L37.8757 53.7962L37.7004 53.9253L29.5579 43.0194H29.8254Z" fill="#D2B071"/>
<path d="M30.093 43.0194L38.0464 53.667L37.8757 53.7962L29.8254 43.0194H30.093Z" fill="#D1AF70"/>
<path d="M30.3652 43.0194L38.2171 53.5378L38.0464 53.667L30.093 43.0194H30.3652Z" fill="#D0AE6F"/>
<path d="M30.6328 43.0194L38.3924 53.4133L38.2171 53.5378L30.3652 43.0194H30.6328Z" fill="#D0AD6E"/>
<path d="M30.9004 43.0194L38.5631 53.2841L38.3924 53.4133L30.6328 43.0194H30.9004Z" fill="#CFAB6D"/>
<path d="M31.1723 43.0194L38.6736 53.0673V53.2011L38.5629 53.2841L30.9001 43.0194H31.1723Z" fill="#CEAA6C"/>
<path d="M31.4399 43.0194L38.6737 52.7074V53.0673L31.1724 43.0194H31.4399Z" fill="#CEA96B"/>
<path d="M31.7075 43.0194L38.6737 52.3476V52.7074L31.4399 43.0194H31.7075Z" fill="#CDA86A"/>
<path d="M31.9751 43.0194L38.6737 51.9877V52.3476L31.7075 43.0194H31.9751Z" fill="#CCA769"/>
<path d="M32.2475 43.0194L38.6739 51.6279V51.9877L31.9753 43.0194H32.2475Z" fill="#CCA668"/>
<path d="M32.5149 43.0194L38.6737 51.2681V51.6279L32.2473 43.0194H32.5149Z" fill="#CBA567"/>
<path d="M32.7825 43.0194L38.6737 50.9082V51.2681L32.5149 43.0194H32.7825Z" fill="#CAA466"/>
<path d="M33.0547 43.0194L38.6737 50.5484V50.9082L32.7825 43.0194H33.0547Z" fill="#CAA365"/>
<path d="M33.3223 43.0194L38.6737 50.1885V50.5484L33.0547 43.0194H33.3223Z" fill="#C9A264"/>
<path d="M33.5898 43.0194L38.6737 49.8287V50.1885L33.3223 43.0194H33.5898Z" fill="#C9A163"/>
<path d="M33.8574 43.0194L38.6737 49.4642V49.8287L33.5898 43.0194H33.8574Z" fill="#C8A062"/>
<path d="M34.1296 43.0194L38.6737 49.1044V49.4642L33.8574 43.0194H34.1296Z" fill="#C79F61"/>
<path d="M34.3972 43.0194L38.6738 48.7446V49.1044L34.1296 43.0194H34.3972Z" fill="#C79E60"/>
<path d="M34.6648 43.0194L38.6738 48.3847V48.7446L34.3972 43.0194H34.6648Z" fill="#C69D60"/>
<path d="M34.9367 43.0194L38.6735 48.0249V48.3847L34.6646 43.0194H34.9367Z" fill="#C59C5F"/>
<path d="M35.2043 43.0194L38.6736 47.665V48.0249L34.9368 43.0194H35.2043Z" fill="#C59B5E"/>
<path d="M35.4722 43.0194L38.6738 47.3052V47.665L35.2046 43.0194H35.4722Z" fill="#C49A5D"/>
<path d="M35.7444 43.0194L38.6738 46.9454V47.3052L35.4722 43.0194H35.7444Z" fill="#C4995C"/>
<path d="M36.012 43.0194L38.6739 46.5855V46.9454L35.7444 43.0194H36.012Z" fill="#C3985B"/>
<path d="M36.2793 43.0194L38.6736 46.2257V46.5855L36.0117 43.0194H36.2793Z" fill="#C2975A"/>
<path d="M36.5471 43.0194L38.6739 45.8658V46.2257L36.2795 43.0194H36.5471Z" fill="#C29659"/>
<path d="M36.8191 43.0194L38.6736 45.506V45.8658L36.5469 43.0194H36.8191Z" fill="#C19558"/>
<path d="M37.0867 43.0194L38.6737 45.1462V45.506L36.8191 43.0194H37.0867Z" fill="#C19457"/>
<path d="M37.3542 43.0194L38.6737 44.7863V45.1462L37.0867 43.0194H37.3542Z" fill="#C09356"/>
<path d="M37.6267 43.0194L38.6739 44.4265V44.7863L37.3545 43.0194H37.6267Z" fill="#BF9255"/>
<path d="M37.894 43.0194L38.6737 44.0666V44.4265L37.6265 43.0194H37.894Z" fill="#BF9155"/>
<path d="M38.1616 43.0194L38.6737 43.7068V44.0666L37.894 43.0194H38.1616Z" fill="#BE9054"/>
<path d="M38.4292 43.0194L38.6737 43.347V43.7068L38.1616 43.0194H38.4292Z" fill="#BE9053"/>
<path d="M38.6737 43.347L38.4292 43.0194H38.6737V43.347Z" fill="#BD8F52"/>
</g>
</svg>
