<?xml version="1.0" encoding="utf-8"?>
<!-- Generator: Adobe Illustrator 19.1.0, SVG Export Plug-In . SVG Version: 6.00 Build 0)  -->
<svg version="1.1" id="Layer_1" xmlns="http://www.w3.org/2000/svg" xmlns:xlink="http://www.w3.org/1999/xlink" x="0px" y="0px"
	 viewBox="0 0 30 30" style="enable-background:new 0 0 30 30;" xml:space="preserve">
<style type="text/css">
	.st0{fill:url(#SVGID_1_);}
</style>
<g>
	<linearGradient id="SVGID_1_" gradientUnits="userSpaceOnUse" x1="5.291" y1="14.7374" x2="24.5855" y2="14.7374">
		<stop  offset="0" style="stop-color:#FDF5A2"/>
		<stop  offset="1" style="stop-color:#9B5B25"/>
	</linearGradient>
	<path class="st0" d="M14,13h4.7v3.7h-4.2c-0.1,0.9-0.2,1.7-0.5,2.4c-0.2,0.5-0.6,1.1-1.1,1.7c0.6-0.1,1.1-0.2,1.5-0.2
		c0.5,0,1.2,0.1,2.1,0.3c1.2,0.3,2.1,0.4,2.8,0.4c0.6,0,1.1,0,1.5-0.1c0.4-0.1,1-0.3,1.7-0.6l2.1,4.6c-1,0.5-1.9,0.9-2.7,1.1
		c-0.8,0.2-1.6,0.3-2.5,0.3c-1,0-2.1-0.2-3.3-0.5c-1.6-0.4-2.7-0.7-3.1-0.8c-0.4-0.1-0.8-0.1-1.3-0.1c-1.3,0-2.8,0.5-4.4,1.4l-2-4.4
		c2.2-1.6,3.3-3.1,3.3-4.7c0-0.1,0-0.3,0-0.7H5.3V13h2.3c-0.4-1.4-0.6-2.2-0.7-2.4c-0.1-0.3-0.1-0.7-0.1-1.2c0-1.3,0.3-2.5,1-3.5
		c0.7-1,1.6-1.8,2.7-2.2C11.7,3.2,13.2,3,15.1,3c1.8,0,3.2,0.2,4.2,0.6c1,0.4,1.9,1.1,2.6,2c0.7,0.9,1.2,2,1.5,3.4l-5.9,0.9
		c-0.3-1.1-0.6-1.8-1-2.2c-0.4-0.4-0.8-0.5-1.3-0.5c-0.6,0-1.1,0.2-1.5,0.6c-0.4,0.4-0.6,0.9-0.6,1.7c0,0.4,0,0.8,0.1,1.1
		C13.4,10.8,13.6,11.7,14,13L14,13z"/>
</g>
</svg>
