<svg width="22" height="22" viewBox="0 0 22 22" fill="none" xmlns="http://www.w3.org/2000/svg"><path d="M16.3625 18.2875L12.3062 14.2312L14.2312 12.3062L18.2875 16.3625C18.5472 16.6222 18.6771 16.943 18.6771 17.325C18.6771 17.7069 18.5472 18.0277 18.2875 18.2875C18.0278 18.5472 17.7069 18.6771 17.325 18.6771C16.943 18.6771 16.6222 18.5472 16.3625 18.2875ZM3.71248 18.2875C3.45276 18.0277 3.32289 17.7069 3.32289 17.325C3.32289 16.943 3.45276 16.6222 3.71248 16.3625L9.07498 11L7.51664 9.44164C7.34859 9.60969 7.1347 9.69372 6.87498 9.69372C6.61526 9.69372 6.40137 9.60969 6.23331 9.44164L5.70623 8.91455V10.9771C5.70623 11.1909 5.61456 11.3361 5.43123 11.4125C5.2479 11.4889 5.07984 11.4507 4.92706 11.2979L2.42914 8.79997C2.27637 8.64719 2.23817 8.47914 2.31456 8.2958C2.39095 8.11247 2.53609 8.0208 2.74998 8.0208H4.81248L4.30831 7.51663C4.12498 7.3333 4.03331 7.11941 4.03331 6.87497C4.03331 6.63052 4.12498 6.41664 4.30831 6.2333L6.92081 3.6208C7.22637 3.31525 7.55484 3.09372 7.90623 2.95622C8.25762 2.81872 8.61664 2.74997 8.98331 2.74997C9.28887 2.74997 9.57548 2.7958 9.84314 2.88747C10.1108 2.97914 10.3742 3.11664 10.6333 3.29997C10.7555 3.37636 10.8206 3.4833 10.8286 3.6208C10.8365 3.7583 10.7867 3.88052 10.6791 3.98747L8.93748 5.72914L9.44165 6.2333C9.6097 6.40136 9.69373 6.61525 9.69373 6.87497C9.69373 7.13469 9.6097 7.34858 9.44165 7.51663L11 9.07497L13.0625 7.01247C13.0014 6.84441 12.9519 6.66872 12.914 6.48538C12.8761 6.30205 12.8568 6.11872 12.8562 5.93538C12.8562 5.034 13.1658 4.27377 13.7848 3.65472C14.4039 3.03566 15.1638 2.72644 16.0646 2.72705C16.1868 2.72705 16.3014 2.73102 16.4083 2.73897C16.5153 2.74691 16.6222 2.76586 16.7291 2.7958C16.8666 2.84164 16.9546 2.93727 16.9931 3.08272C17.0316 3.22816 16.9971 3.35405 16.8896 3.46039L15.4 4.94997C15.3083 5.04164 15.2625 5.14858 15.2625 5.2708C15.2625 5.39302 15.3083 5.49997 15.4 5.59163L16.4083 6.59997C16.5 6.69163 16.6069 6.73747 16.7291 6.73747C16.8514 6.73747 16.9583 6.69163 17.05 6.59997L18.5396 5.11038C18.6465 5.00344 18.7727 4.96525 18.9181 4.9958C19.0636 5.02636 19.1589 5.11802 19.2041 5.2708C19.2347 5.37775 19.254 5.48469 19.2619 5.59163C19.2698 5.69858 19.2735 5.81316 19.2729 5.93538C19.2729 6.83677 18.9637 7.59669 18.3452 8.21514C17.7268 8.83358 16.9666 9.14311 16.0646 9.14372C15.8812 9.14372 15.6979 9.12844 15.5146 9.09789C15.3312 9.06733 15.1555 9.01386 14.9875 8.93747L5.63748 18.2875C5.37776 18.5472 5.05692 18.6771 4.67498 18.6771C4.29303 18.6771 3.9722 18.5472 3.71248 18.2875Z" fill="url(#paint0_linear_181_6749)"/><defs><linearGradient id="paint0_linear_181_6749" x1="-6.79229" y1="13.7115" x2="19.273" y2="13.7115" gradientUnits="userSpaceOnUse"><stop stop-color="#FFF79F"/><stop offset="1" stop-color="#9B5A25"/></linearGradient></defs></svg>