<svg width="17" height="17" viewBox="0 0 17 17" fill="none" xmlns="http://www.w3.org/2000/svg">
<path d="M11.6318 1.23629C10.8366 0.439038 9.72593 0 8.5 0C7.26753 0 6.15317 0.436381 5.36162 1.2287C4.5615 2.02974 4.17166 3.11842 4.26319 4.29399C4.44463 6.61327 6.34523 8.49995 8.5 8.49995C10.6548 8.49995 12.5521 6.61364 12.7364 4.29475C12.8292 3.1298 12.4369 2.0434 11.6318 1.23629ZM15.6921 16.9999H1.30789C1.11961 17.0022 0.933159 16.9654 0.762092 16.8924C0.591025 16.8193 0.439648 16.7118 0.318975 16.5776C0.0533573 16.2827 -0.0537071 15.8801 0.0255696 15.4729C0.370464 13.6963 1.44683 12.2039 3.13861 11.1562C4.6416 10.2261 6.54546 9.71423 8.5 9.71423C10.4545 9.71423 12.3584 10.2265 13.8614 11.1562C15.5532 12.2035 16.6295 13.6959 16.9744 15.4726C17.0537 15.8797 16.9466 16.2823 16.681 16.5772C16.5604 16.7115 16.409 16.8191 16.238 16.8922C16.0669 16.9653 15.8804 17.0021 15.6921 16.9999Z" fill="url(#paint0_linear_181_6751)"/>
<defs>
<linearGradient id="paint0_linear_181_6751" x1="-9.07047" y1="11.7076" x2="17" y2="11.7076" gradientUnits="userSpaceOnUse">
<stop stop-color="#FFF79F"/>
<stop offset="1" stop-color="#9B5A25"/>
</linearGradient>
</defs>
</svg>
